PathFileType	4	(X/Y/Z)	C:\Users\Ali Mert BOSTAN\Desktop\Yazýlým\Hacettepe-Bil-D-nem-Proje\basket_Sports2D\basket_Sports2D_px_person00.trc
DataRate	CameraRate	NumFrames	NumMarkers	Units	OrigDataRate	OrigDataStartFrame	OrigNumFrames
120.0	120.0	8	22	m	120.0	66	266
Frame#	Time	Hip			RHip			RKnee			RAnkle			RBigToe			RSmallToe			RHeel			LHip			LKnee			LAnkle			LBigToe			LSmallToe			LHeel			Neck			Head			Nose			RShoulder			RElbow			RWrist			LShoulder			LElbow			LWrist		
		X1	Y1	Z1	X2	Y2	Z2	X3	Y3	Z3	X4	Y4	Z4	X5	Y5	Z5	X6	Y6	Z6	X7	Y7	Z7	X8	Y8	Z8	X9	Y9	Z9	X10	Y10	Z10	X11	Y11	Z11	X12	Y12	Z12	X13	Y13	Z13	X14	Y14	Z14	X15	Y15	Z15	X16	Y16	Z16	X17	Y17	Z17	X18	Y18	Z18	X19	Y19	Z19	X20	Y20	Z20	X21	Y21	Z21	X22	Y22	Z22
66	0.55	369.82264910653055	602.1778799403439	0.0	376.7552576817868	599.1567168992218	0.0	397.8526660052302	793.012693100788	0.0	374.52026532716224	987.0369021459984	0.0	447.47930938874833	1011.3784093347324	0.0	435.2192775070212	1020.7645091645754	0.0	352.31010400104395	1006.4101188438914	0.0	364.14148414654915	597.3434968304367	0.0	372.4251057839203	788.3452479001357	0.0	358.8990852721286	978.9890960079978	0.0	437.23453557201066	1000.5631539833582	0.0	429.5591876760891	996.3657162805715	0.0	331.46650649384367	999.0290572120891	0.0	398.93088428638845	346.574786506892	0.0	419.27984287365155	231.16857980144164	0.0	452.652972420342	299.8705404993173	0.0	397.8699672083696	372.36808229030123	0.0	471.3782231271017	476.2918771976946	0.0	544.2622460329368	419.87989529593966	0.0	376.11171278370085	372.31047040642324	0.0	457.3340955097973	475.3491355542981	0.0	539.9987704480337	427.81091656939964	0.0
67	0.5583333333333333	369.9001333757061	602.220724092677	0.0	376.88058661948907	599.1619807762291	0.0	398.0589573732657	793.0780248635593	0.0	374.6258837092107	986.9336871101597	0.0	447.4077141005751	1011.3573287342494	0.0	435.18319975996127	1020.8142966738886	0.0	352.48923993885705	1006.2570130142487	0.0	364.13701717433077	597.317468240096	0.0	372.6497384260676	788.3048167319625	0.0	358.9953962798419	978.8423608108881	0.0	437.15416685806724	1000.5305191141376	0.0	429.29105854363144	996.2443249395008	0.0	331.4153624347758	998.864747537952	0.0	398.9533283460376	346.46968726576085	0.0	418.7561193083069	231.16044450109342	0.0	452.363557073638	299.70848305298745	0.0	397.89675291235636	372.31357294045887	0.0	472.4082333614592	475.5844529535044	0.0	544.6080984307799	418.1429136685559	0.0	375.94508241541524	372.210819577865	0.0	458.5192605793105	474.63811967829736	0.0	540.5763775829366	426.33965210982456	0.0
68	0.5666666666666667	369.95900620958986	602.242580070347	0.0	376.97919724793525	599.1769033786002	0.0	398.28086955351915	793.1886093391556	0.0	374.74653619998935	986.881749157937	0.0	447.32894740852936	1011.2853960663961	0.0	435.1619136883395	1020.8596567591343	0.0	352.69416307347274	1006.1681876979637	0.0	364.1015930705377	597.2974147617265	0.0	372.8092935496579	788.3391324652223	0.0	358.98290113719895	978.7608106287219	0.0	437.03858352919565	1000.4812083777776	0.0	429.0037945197483	996.1149294797953	0.0	331.36617881365436	998.7676225455203	0.0	398.94920322061597	346.3854446724936	0.0	418.2198820266372	231.12492240838083	0.0	452.0559877117006	299.5447640949653	0.0	397.91926407381004	372.28417959882603	0.0	473.4224925802904	474.87098814818887	0.0	544.963668027249	416.45052668716556	0.0	375.7472078533446	372.1400316878982	0.0	459.6541808091266	473.92727847381775	0.0	541.1109771215762	424.91770087128606	0.0
69	0.575	369.99582526425917	602.2496946804321	0.0	377.06726511768215	599.203994663516	0.0	398.5478597480695	793.3426762037786	0.0	374.89349753635275	986.8836101785525	0.0	447.2769198768586	1011.1670424152675	0.0	435.1766947491303	1020.8994329080987	0.0	352.9204291676394	1006.1479143461855	0.0	364.01544152102656	597.2846489028587	0.0	372.86364744911384	788.4389435398671	0.0	358.825216738198	978.7374867016798	0.0	436.8762510996341	1000.3927185445308	0.0	428.6794123712555	995.9652207308999	0.0	331.3180835365584	998.7366612862443	0.0	398.9185575722384	346.320624879459	0.0	417.66489002314347	231.04827284509804	0.0	451.73745984840036	299.38440115682744	0.0	397.95343311309057	372.26815879788194	0.0	474.4103659152802	474.1479530894669	0.0	545.3357234065123	414.80200225624304	0.0	375.517546828019	372.10019943453636	0.0	460.73988577620304	473.23210104603265	0.0	541.6119551790108	423.5431696457011	0.0
70	0.5833333333333334	370.01300100718186	602.246699245321	0.0	377.1598886276314	599.2423843536537	0.0	398.8642348670837	793.5243762769315	0.0	375.05203744632627	986.9279014362764	0.0	447.2598065698306	1011.0147221519841	0.0	435.2269016449526	1020.9375879705541	0.0	353.14125477724275	1006.1864442181671	0.0	363.88398836944896	597.2808602522599	0.0	372.8225190595387	788.5834509140074	0.0	358.544725561536	978.7539352600261	0.0	436.682440231918	1000.251988710032	0.0	428.3095604151192	995.7892926843247	0.0	331.2601153288521	998.7564602095623	0.0	398.86409452324153	346.2699863335122	0.0	417.0965173893957	230.9176949900512	0.0	451.41485401244387	299.2284157916549	0.0	398.0100549454265	372.2469594033645	0.0	475.3649556884625	473.4078265854015	0.0	545.7279572229946	413.19343675649276	0.0	375.25910350368275	372.09008853118564	0.0	461.7832718752155	472.56221984992345	0.0	542.0847689430846	422.2118033459785	0.0
71	0.5916666666666667	370.0177433688277	602.2373137490395	0.0	377.26952584349806	599.2896180765867	0.0	399.21059966701415	793.7155100299094	0.0	375.1991900559224	987.0016671206041	0.0	447.2740862654242	1010.8450383642058	0.0	435.30500648008166	1020.9789090415292	0.0	353.3280635966709	1006.2675339006133	0.0	363.72641548213113	597.2872741815837	0.0	372.7154342432266	788.7538350577374	0.0	358.19121716810884	978.7935015233962	0.0	436.490059627719	1000.0593010627018	0.0	427.90903542305347	995.5854798746063	0.0	331.18461944841545	998.8054973658387	0.0	398.789644096466	346.22026792692253	0.0	416.52954377971633	230.73517341577355	0.0	451.0952831899655	299.073208246513	0.0	398.0935490927926	372.2012846054191	0.0	476.2870133006192	472.64576516820176	0.0	546.1376189809985	411.6206478573187	0.0	374.97907018784406	372.10403562147656	0.0	462.7980114366618	471.92144750475404	0.0	542.5314786350259	420.9122064140696	0.0
72	0.6	370.0178600914243	602.2239531885857	0.0	377.40860219056776	599.3405200291136	0.0	399.5607235297227	793.9008645385591	0.0	375.3284021253076	987.0990063272423	0.0	447.3236195130159	1010.6748923568044	0.0	435.4156204485091	1021.0256330931608	0.0	353.4738862283463	1006.3747097936721	0.0	363.5555551845032	597.2995645727406	0.0	372.55660286152283	788.9340807200041	0.0	357.79837270266495	978.848059569875	0.0	436.32712609725723	999.8232825976975	0.0	427.51014467490376	995.3559636139212	0.0	331.097533090112	998.8665782613253	0.0	398.702620845835	346.1549769315154	0.0	415.98063631382496	230.5216154914871	0.0	450.7864825608318	298.9153332739499	0.0	398.20578072014126	372.116715314885	0.0	477.1852339085751	471.86296091928745	0.0	546.5531026419626	410.07633292475714	0.0	374.68936964102613	372.1317818042926	0.0	463.7988141154432	471.3057497697709	0.0	542.954118831903	419.62444125412867	0.0
73	0.6083333333333333	370.02185984271614	602.2063578693234	0.0	377.5813397343541	599.3911727175664	0.0	399.87813252336974	794.0683970989778	0.0	375.4386266106909	987.2173559639643	0.0	447.4141932304826	1010.5200095027362	0.0	435.56715013083533	1021.0784178023351	0.0	353.5846329388251	1006.4951028709986	0.0	363.38405283404893	597.3111544394225	0.0	372.3651143811617	789.1142475033944	0.0	357.3950352208808	978.9169885437713	0.0	436.2195611064879	999.560407033433	0.0	427.1541968190139	995.1120169205561	0.0	331.0136348291324	998.9293210486338	0.0	398.61452453889916	346.06683663971444	0.0	415.46839154842894	230.30556242102324	0.0	450.4959315396138	298.7537110227303	0.0	398.34403968776877	371.9883738956753	0.0	478.0728060175136	471.06281601515843	0.0	546.9558630736476	408.5559302390719	0.0	374.4060273627047	372.1626942892233	0.0	464.7981244576724	470.7004208713384	0.0	543.3535640423992	418.3300884440552	0.0
